Patient4_TMGait_0pt5_02_right_28_GRF.mot
version=1
nRows=26
nColumns=19
inDegrees=no
endheader
time	F1x	F1y	F1z	M1x	M1y	M1z	F2x	F2y	F2z	M2x	M2y	M2z	EC1x	EC1y	EC1z	EC2x	EC2y	EC2z
36.54	-6.7369	756.646	55.5124	-263.1115	-50.952	694.7232	3.3383	-5.2183	13.6753	-5.6407	-14.6196	-12.4216	-0.0592	0.0182	-0.0073	-0.0462	0.0165	0.9585
36.553	-5.0981	758.2573	54.6591	-263.7882	-48.9925	693.2015	2.0636	-2.8615	9.3028	-3.5586	-9.8493	-7.6132	-0.0592	0.0182	-0.0073	-0.0462	0.0165	0.9585
36.566	-3.3051	759.775	53.6614	-264.3702	-46.8148	691.1103	1.0081	-0.86063	5.5379	-1.7737	-5.766	-3.5574	-0.0592	0.0182	-0.0073	-0.0462	0.0165	0.9585
36.579	-1.4043	760.8617	52.5682	-264.7351	-44.5208	688.2834	0.21826	0.68821	2.6356	-0.39535	-2.6356	-0.46765	-0.0592	0.0182	-0.0073	-0.0462	0.0165	0.9585
36.592	0.59628	761.2692	51.4599	-264.7982	-42.2129	684.6155	-0.32617	1.798	0.60496	0.57458	-0.45891	1.6917	-0.0592	0.0182	-0.0073	-0.0462	0.0165	0.9585
36.605	2.6937	760.9325	50.4367	-264.5394	-39.9993	680.1506	-0.65988	2.5195	-0.66453	1.189	0.89147	3.0473	-0.0592	0.0182	-0.0073	-0.0462	0.0165	0.9585
36.618	4.9025	759.9935	49.6032	-264.0099	-37.9773	675.0987	-0.85391	2.924	-1.3456	1.5214	1.6141	3.7804	-0.0592	0.0182	-0.0073	-0.0462	0.0165	0.9585
36.631	7.2146	758.7358	49.0613	-263.3062	-36.2421	669.7869	-0.95106	3.0524	-1.6031	1.6365	1.8917	4.0248	-0.0592	0.0182	-0.0073	-0.0462	0.0165	0.9585
36.644	9.5976	757.4705	48.8874	-262.5338	-34.866	664.5496	-1.0075	2.9356	-1.5967	1.5848	1.9011	3.899	-0.0592	0.0182	-0.0073	-0.0462	0.0165	0.9585
36.657	11.9944	756.4367	49.1184	-261.7746	-33.8918	659.6456	-1.0517	2.5583	-1.4427	1.3916	1.7642	3.44	-0.0592	0.0182	-0.0073	-0.0462	0.0165	0.9585
36.67	14.3334	755.7445	49.7316	-261.0707	-33.314	655.2138	-1.1046	1.8788	-1.2367	1.0629	1.578	2.6441	-0.0592	0.0182	-0.0073	-0.0462	0.0165	0.9585
36.683	16.5766	755.3428	50.6803	-260.4112	-33.0951	651.2213	-1.1713	0.84012	-1.0285	0.59164	1.3938	1.4731	-0.0592	0.0182	-0.0073	-0.0462	0.0165	0.9585
36.696	18.7244	755.059	51.8795	-259.7435	-33.1542	647.5127	-1.226	-0.59986	-0.85163	-0.031692	1.2375	-0.11238	-0.0592	0.0182	-0.0073	-0.0462	0.0165	0.9585
36.709	20.8206	754.6443	53.2436	-258.9882	-33.3998	643.8459	-1.2289	-2.4359	-0.71337	-0.80317	1.1023	-2.1016	-0.0592	0.0182	-0.0073	-0.0462	0.0165	0.9585
36.722	22.9354	753.8797	54.67	-258.0773	-33.7175	639.9907	-1.1046	-4.5621	-0.61942	-1.6787	0.96333	-4.3848	-0.0592	0.0182	-0.0073	-0.0462	0.0165	0.9585
36.735	25.1315	752.651	56.0685	-256.9836	-34.0066	635.809	-0.76718	-6.6866	-0.56245	-2.5442	0.77727	-6.6605	-0.0592	0.0182	-0.0073	-0.0462	0.0165	0.9585
36.748	27.4484	750.9864	57.3612	-255.734	-34.186	631.2938	-0.10657	-8.2753	-0.53654	-3.188	0.49436	-8.3779	-0.0592	0.0182	-0.0073	-0.0462	0.0165	0.9585
36.761	29.8991	749.0352	58.5008	-254.3954	-34.2061	626.5446	0.98703	-8.4702	-0.54183	-3.2668	0.071004	-8.6335	-0.0592	0.0182	-0.0073	-0.0462	0.0165	0.9585
36.774	32.4843	746.9741	59.4609	-253.0405	-34.0385	621.6888	2.6045	-6.0396	-0.57876	-2.2849	-0.51689	-6.1378	-0.0592	0.0182	-0.0073	-0.0462	0.0165	0.9585
36.787	35.1842	744.8794	60.2333	-251.7088	-33.6752	616.7932	4.778	0.61387	-0.64805	0.40193	-1.2651	0.77957	-0.0592	0.0182	-0.0073	-0.0462	0.0165	0.9585
36.8	37.9762	742.5799	60.8033	-250.3544	-33.1072	611.7398	7.4155	13.3634	-0.75017	5.5482	-2.1176	14.085	-0.0592	0.0182	-0.0073	-0.0462	0.0165	0.9585
36.813	40.8081	739.5558	61.118	-248.8098	-32.3119	606.1563	10.224	34.0934	-0.88117	13.913	-2.944	35.7538	-0.0592	0.0182	-0.0073	-0.0462	0.0165	0.9585
36.826	43.6128	734.8858	61.0684	-246.7719	-31.2345	599.3597	12.6046	64.2185	-1.0376	26.0659	-3.4998	67.2775	-0.0592	0.0182	-0.0073	-0.0462	0.0165	0.9585
36.839	46.2726	727.295	60.4762	-243.8205	-29.7857	590.3936	13.5617	103.902	-1.2091	42.0746	-3.4001	108.8419	-0.0592	0.0182	-0.0073	-0.0462	0.0165	0.9585
36.852	48.6007	715.3182	59.1323	-239.4738	-27.8783	578.1618	11.7436	151.0666	-1.3877	61.1049	-2.1433	158.2927	-0.0592	0.0182	-0.0073	-0.0462	0.0165	0.9585
36.865	50.379	697.5889	56.8275	-233.2864	-25.4412	561.6323	6.2558	200.7958	-1.5741	81.1803	0.56274	210.5135	-0.0592	0.0182	-0.0073	-0.0462	0.0165	0.9585
